<mxfile host="app.diagrams.net" agent="Mozilla/5.0 (Windows NT 10.0; Win64; x64) AppleWebKit/537.36 (KHTML, like Gecko) Chrome/129.0.0.0 Safari/537.36 Edg/129.0.0.0" version="24.8.0">
  <diagram name="Sayfa -1" id="iScw7KTplINsJfF3ByA9">
    <mxGraphModel dx="338" dy="552" grid="1" gridSize="10" guides="1" tooltips="1" connect="1" arrows="1" fold="1" page="1" pageScale="1" pageWidth="827" pageHeight="1169" math="0" shadow="0">
      <root>
        <mxCell id="0" />
        <mxCell id="1" parent="0" />
        <mxCell id="SlZBRCtrslSZPi-aYwlS-21" value="" style="shape=table;html=1;whiteSpace=wrap;startSize=20;container=1;collapsible=0;childLayout=tableLayout;fillColor=none;swimlaneFillColor=#ffffff;strokeColor=none;" vertex="1" parent="1">
          <mxGeometry x="80" y="80" width="560" height="810" as="geometry" />
        </mxCell>
        <mxCell id="SlZBRCtrslSZPi-aYwlS-22" value="" style="shape=partialRectangle;html=1;whiteSpace=wrap;collapsible=0;dropTarget=0;pointerEvents=0;fillColor=none;top=0;left=0;bottom=0;right=0;points=[[0,0.5],[1,0.5]];portConstraint=eastwest;strokeColor=none;" vertex="1" parent="SlZBRCtrslSZPi-aYwlS-21">
          <mxGeometry y="20" width="560" height="48" as="geometry" />
        </mxCell>
        <mxCell id="SlZBRCtrslSZPi-aYwlS-24" value="Spieler" style="shape=partialRectangle;html=1;whiteSpace=wrap;connectable=0;fillColor=none;top=1;left=1;bottom=1;right=1;overflow=hidden;" vertex="1" parent="SlZBRCtrslSZPi-aYwlS-22">
          <mxGeometry width="185" height="48" as="geometry">
            <mxRectangle width="185" height="48" as="alternateBounds" />
          </mxGeometry>
        </mxCell>
        <mxCell id="SlZBRCtrslSZPi-aYwlS-25" value="PC" style="shape=partialRectangle;html=1;whiteSpace=wrap;connectable=0;fillColor=none;top=1;left=1;bottom=1;right=1;overflow=hidden;" vertex="1" parent="SlZBRCtrslSZPi-aYwlS-22">
          <mxGeometry x="185" width="375" height="48" as="geometry">
            <mxRectangle width="375" height="48" as="alternateBounds" />
          </mxGeometry>
        </mxCell>
        <mxCell id="SlZBRCtrslSZPi-aYwlS-26" value="" style="shape=partialRectangle;html=1;whiteSpace=wrap;collapsible=0;dropTarget=0;pointerEvents=0;fillColor=none;top=1;left=1;bottom=1;right=1;points=[[0,0.5],[1,0.5]];portConstraint=eastwest;" vertex="1" parent="SlZBRCtrslSZPi-aYwlS-21">
          <mxGeometry y="68" width="560" height="742" as="geometry" />
        </mxCell>
        <mxCell id="SlZBRCtrslSZPi-aYwlS-28" value="" style="shape=partialRectangle;html=1;whiteSpace=wrap;connectable=0;fillColor=none;top=1;left=1;bottom=1;right=1;overflow=hidden;" vertex="1" parent="SlZBRCtrslSZPi-aYwlS-26">
          <mxGeometry width="185" height="742" as="geometry">
            <mxRectangle width="185" height="742" as="alternateBounds" />
          </mxGeometry>
        </mxCell>
        <mxCell id="SlZBRCtrslSZPi-aYwlS-29" value="" style="shape=partialRectangle;html=1;whiteSpace=wrap;connectable=0;fillColor=none;top=1;left=1;bottom=1;right=1;overflow=hidden;" vertex="1" parent="SlZBRCtrslSZPi-aYwlS-26">
          <mxGeometry x="185" width="375" height="742" as="geometry">
            <mxRectangle width="375" height="742" as="alternateBounds" />
          </mxGeometry>
        </mxCell>
        <mxCell id="SlZBRCtrslSZPi-aYwlS-34" value="" style="ellipse;html=1;shape=startState;fillColor=#000000;strokeColor=#ff0000;" vertex="1" parent="1">
          <mxGeometry x="160" y="157" width="30" height="30" as="geometry" />
        </mxCell>
        <mxCell id="SlZBRCtrslSZPi-aYwlS-35" value="" style="edgeStyle=orthogonalEdgeStyle;html=1;verticalAlign=bottom;endArrow=open;endSize=8;strokeColor=#ff0000;rounded=0;entryX=0.448;entryY=-0.052;entryDx=0;entryDy=0;entryPerimeter=0;" edge="1" source="SlZBRCtrslSZPi-aYwlS-34" parent="1" target="SlZBRCtrslSZPi-aYwlS-36">
          <mxGeometry relative="1" as="geometry">
            <mxPoint x="175" y="247" as="targetPoint" />
          </mxGeometry>
        </mxCell>
        <mxCell id="SlZBRCtrslSZPi-aYwlS-36" value="Start" style="rounded=1;whiteSpace=wrap;html=1;arcSize=40;fontColor=#000000;fillColor=#ffffc0;strokeColor=#ff0000;" vertex="1" parent="1">
          <mxGeometry x="120" y="210" width="120" height="40" as="geometry" />
        </mxCell>
        <mxCell id="SlZBRCtrslSZPi-aYwlS-37" value="" style="edgeStyle=orthogonalEdgeStyle;html=1;verticalAlign=bottom;endArrow=open;endSize=8;strokeColor=#ff0000;rounded=0;" edge="1" source="SlZBRCtrslSZPi-aYwlS-36" parent="1" target="SlZBRCtrslSZPi-aYwlS-38">
          <mxGeometry relative="1" as="geometry">
            <mxPoint x="180" y="310" as="targetPoint" />
          </mxGeometry>
        </mxCell>
        <mxCell id="SlZBRCtrslSZPi-aYwlS-38" value="Wortidentifiezierun" style="rounded=1;whiteSpace=wrap;html=1;arcSize=40;fontColor=#000000;fillColor=#ffffc0;strokeColor=#ff0000;" vertex="1" parent="1">
          <mxGeometry x="410" y="210" width="120" height="40" as="geometry" />
        </mxCell>
        <mxCell id="SlZBRCtrslSZPi-aYwlS-39" value="" style="edgeStyle=orthogonalEdgeStyle;html=1;verticalAlign=bottom;endArrow=open;endSize=8;strokeColor=#ff0000;rounded=0;" edge="1" source="SlZBRCtrslSZPi-aYwlS-38" parent="1" target="SlZBRCtrslSZPi-aYwlS-40">
          <mxGeometry relative="1" as="geometry">
            <mxPoint x="470" y="310" as="targetPoint" />
            <Array as="points">
              <mxPoint x="470" y="260" />
              <mxPoint x="200" y="260" />
            </Array>
          </mxGeometry>
        </mxCell>
        <mxCell id="SlZBRCtrslSZPi-aYwlS-40" value="Buchstabe eingeben" style="rounded=1;whiteSpace=wrap;html=1;arcSize=40;fontColor=#000000;fillColor=#ffffc0;strokeColor=#ff0000;" vertex="1" parent="1">
          <mxGeometry x="140" y="305" width="120" height="40" as="geometry" />
        </mxCell>
        <mxCell id="SlZBRCtrslSZPi-aYwlS-41" value="" style="edgeStyle=orthogonalEdgeStyle;html=1;verticalAlign=bottom;endArrow=open;endSize=8;strokeColor=#ff0000;rounded=0;entryX=0;entryY=0.5;entryDx=0;entryDy=0;" edge="1" source="SlZBRCtrslSZPi-aYwlS-40" parent="1" target="SlZBRCtrslSZPi-aYwlS-42">
          <mxGeometry relative="1" as="geometry">
            <mxPoint x="200" y="405" as="targetPoint" />
          </mxGeometry>
        </mxCell>
        <mxCell id="SlZBRCtrslSZPi-aYwlS-42" value="Buchstabe&lt;div&gt;&amp;nbsp;kontrollieren&lt;/div&gt;" style="rhombus;whiteSpace=wrap;html=1;fontColor=#000000;fillColor=#ffffc0;strokeColor=#ff0000;" vertex="1" parent="1">
          <mxGeometry x="400" y="290" width="130" height="70" as="geometry" />
        </mxCell>
        <mxCell id="SlZBRCtrslSZPi-aYwlS-43" value="falsch" style="edgeStyle=orthogonalEdgeStyle;html=1;align=left;verticalAlign=bottom;endArrow=open;endSize=8;strokeColor=#ff0000;rounded=0;entryX=1;entryY=0.5;entryDx=0;entryDy=0;exitX=1;exitY=0.5;exitDx=0;exitDy=0;" edge="1" source="SlZBRCtrslSZPi-aYwlS-42" parent="1" target="SlZBRCtrslSZPi-aYwlS-45">
          <mxGeometry x="-1" y="5" relative="1" as="geometry">
            <mxPoint x="560" y="390" as="targetPoint" />
            <Array as="points">
              <mxPoint x="560" y="325" />
              <mxPoint x="560" y="450" />
            </Array>
            <mxPoint as="offset" />
          </mxGeometry>
        </mxCell>
        <mxCell id="SlZBRCtrslSZPi-aYwlS-44" value="richtig" style="edgeStyle=orthogonalEdgeStyle;html=1;align=left;verticalAlign=top;endArrow=open;endSize=8;strokeColor=#ff0000;rounded=0;entryX=0.5;entryY=1;entryDx=0;entryDy=0;" edge="1" source="SlZBRCtrslSZPi-aYwlS-42" parent="1" target="SlZBRCtrslSZPi-aYwlS-40">
          <mxGeometry x="-1" relative="1" as="geometry">
            <mxPoint x="440" y="415" as="targetPoint" />
            <Array as="points">
              <mxPoint x="465" y="385" />
              <mxPoint x="200" y="385" />
            </Array>
          </mxGeometry>
        </mxCell>
        <mxCell id="SlZBRCtrslSZPi-aYwlS-45" value="Strich ziehen" style="rounded=1;whiteSpace=wrap;html=1;arcSize=40;fontColor=#000000;fillColor=#ffffc0;strokeColor=#ff0000;" vertex="1" parent="1">
          <mxGeometry x="420" y="430" width="120" height="40" as="geometry" />
        </mxCell>
        <mxCell id="SlZBRCtrslSZPi-aYwlS-48" value="" style="edgeStyle=orthogonalEdgeStyle;html=1;align=left;verticalAlign=bottom;endArrow=open;endSize=8;strokeColor=#ff0000;rounded=0;exitX=0;exitY=0.5;exitDx=0;exitDy=0;entryX=0;entryY=0.5;entryDx=0;entryDy=0;exitPerimeter=0;" edge="1" source="SlZBRCtrslSZPi-aYwlS-60" parent="1" target="SlZBRCtrslSZPi-aYwlS-40">
          <mxGeometry x="-1" relative="1" as="geometry">
            <mxPoint x="340" y="430" as="targetPoint" />
            <mxPoint x="160" y="430" as="sourcePoint" />
            <Array as="points">
              <mxPoint x="140" y="605" />
            </Array>
          </mxGeometry>
        </mxCell>
        <mxCell id="SlZBRCtrslSZPi-aYwlS-49" value="" style="edgeStyle=orthogonalEdgeStyle;html=1;align=left;verticalAlign=top;endArrow=open;endSize=8;strokeColor=#ff0000;rounded=0;entryX=0.5;entryY=0;entryDx=0;entryDy=0;exitX=0.435;exitY=0.49;exitDx=0;exitDy=0;exitPerimeter=0;" edge="1" source="SlZBRCtrslSZPi-aYwlS-60" parent="1" target="SlZBRCtrslSZPi-aYwlS-50">
          <mxGeometry x="-1" relative="1" as="geometry">
            <mxPoint x="230" y="500" as="targetPoint" />
            <mxPoint x="230" y="440" as="sourcePoint" />
          </mxGeometry>
        </mxCell>
        <mxCell id="SlZBRCtrslSZPi-aYwlS-50" value="Wort erraten" style="rounded=1;whiteSpace=wrap;html=1;arcSize=40;fontColor=#000000;fillColor=#ffffc0;strokeColor=#ff0000;" vertex="1" parent="1">
          <mxGeometry x="160" y="676" width="120" height="40" as="geometry" />
        </mxCell>
        <mxCell id="SlZBRCtrslSZPi-aYwlS-51" value="" style="edgeStyle=orthogonalEdgeStyle;html=1;verticalAlign=bottom;endArrow=open;endSize=8;strokeColor=#ff0000;rounded=0;entryX=0;entryY=0.5;entryDx=0;entryDy=0;" edge="1" source="SlZBRCtrslSZPi-aYwlS-50" parent="1" target="SlZBRCtrslSZPi-aYwlS-52">
          <mxGeometry relative="1" as="geometry">
            <mxPoint x="220" y="600" as="targetPoint" />
          </mxGeometry>
        </mxCell>
        <mxCell id="SlZBRCtrslSZPi-aYwlS-52" value="Wort kontrollieren" style="rhombus;whiteSpace=wrap;html=1;fontColor=#000000;fillColor=#ffffc0;strokeColor=#ff0000;" vertex="1" parent="1">
          <mxGeometry x="408" y="661" width="112" height="70" as="geometry" />
        </mxCell>
        <mxCell id="SlZBRCtrslSZPi-aYwlS-53" value="falsch" style="edgeStyle=orthogonalEdgeStyle;html=1;align=left;verticalAlign=bottom;endArrow=open;endSize=8;strokeColor=#ff0000;rounded=0;entryX=1;entryY=0.5;entryDx=0;entryDy=0;exitX=0.5;exitY=0;exitDx=0;exitDy=0;entryPerimeter=0;" edge="1" source="SlZBRCtrslSZPi-aYwlS-52" parent="1" target="SlZBRCtrslSZPi-aYwlS-60">
          <mxGeometry x="-0.7647" relative="1" as="geometry">
            <mxPoint x="270" y="420" as="targetPoint" />
            <Array as="points">
              <mxPoint x="464" y="606" />
            </Array>
            <mxPoint as="offset" />
          </mxGeometry>
        </mxCell>
        <mxCell id="SlZBRCtrslSZPi-aYwlS-54" value="richtig" style="edgeStyle=orthogonalEdgeStyle;html=1;align=left;verticalAlign=top;endArrow=open;endSize=8;strokeColor=#ff0000;rounded=0;entryX=0;entryY=0.5;entryDx=0;entryDy=0;exitX=0.5;exitY=1;exitDx=0;exitDy=0;" edge="1" source="SlZBRCtrslSZPi-aYwlS-52" parent="1">
          <mxGeometry x="-1" relative="1" as="geometry">
            <mxPoint x="470" y="855" as="targetPoint" />
            <Array as="points">
              <mxPoint x="464" y="760" />
              <mxPoint x="440" y="760" />
              <mxPoint x="440" y="855" />
            </Array>
          </mxGeometry>
        </mxCell>
        <mxCell id="SlZBRCtrslSZPi-aYwlS-55" value="" style="ellipse;html=1;shape=endState;fillColor=#000000;strokeColor=#ff0000;" vertex="1" parent="1">
          <mxGeometry x="470" y="840" width="30" height="30" as="geometry" />
        </mxCell>
        <mxCell id="SlZBRCtrslSZPi-aYwlS-60" value="" style="shape=line;html=1;strokeWidth=6;strokeColor=#ff0000;" vertex="1" parent="1">
          <mxGeometry x="190" y="600" width="70" height="10" as="geometry" />
        </mxCell>
        <mxCell id="SlZBRCtrslSZPi-aYwlS-68" value="10 Fehlversuche?" style="rhombus;whiteSpace=wrap;html=1;fontColor=#000000;fillColor=#ffffc0;strokeColor=#ff0000;" vertex="1" parent="1">
          <mxGeometry x="425" y="480" width="110" height="60" as="geometry" />
        </mxCell>
        <mxCell id="SlZBRCtrslSZPi-aYwlS-69" value="nein" style="edgeStyle=orthogonalEdgeStyle;html=1;align=left;verticalAlign=bottom;endArrow=open;endSize=8;strokeColor=#ff0000;rounded=0;exitX=0;exitY=0.5;exitDx=0;exitDy=0;entryX=0.115;entryY=1.017;entryDx=0;entryDy=0;entryPerimeter=0;" edge="1" source="SlZBRCtrslSZPi-aYwlS-68" parent="1" target="SlZBRCtrslSZPi-aYwlS-40">
          <mxGeometry x="-0.8393" relative="1" as="geometry">
            <mxPoint x="580" y="520" as="targetPoint" />
            <mxPoint as="offset" />
          </mxGeometry>
        </mxCell>
        <mxCell id="SlZBRCtrslSZPi-aYwlS-70" value="ja" style="edgeStyle=orthogonalEdgeStyle;html=1;align=left;verticalAlign=top;endArrow=open;endSize=8;strokeColor=#ff0000;rounded=0;entryX=1;entryY=0.5;entryDx=0;entryDy=0;exitX=1;exitY=0.5;exitDx=0;exitDy=0;" edge="1" source="SlZBRCtrslSZPi-aYwlS-68" parent="1">
          <mxGeometry x="-1" relative="1" as="geometry">
            <mxPoint x="500" y="855" as="targetPoint" />
            <Array as="points">
              <mxPoint x="560" y="510" />
              <mxPoint x="560" y="855" />
            </Array>
          </mxGeometry>
        </mxCell>
        <mxCell id="SlZBRCtrslSZPi-aYwlS-71" value="" style="edgeStyle=orthogonalEdgeStyle;html=1;align=left;verticalAlign=top;endArrow=open;endSize=8;strokeColor=#ff0000;rounded=0;entryX=0.383;entryY=0.934;entryDx=0;entryDy=0;exitX=0;exitY=0.25;exitDx=0;exitDy=0;entryPerimeter=0;" edge="1" parent="1" source="SlZBRCtrslSZPi-aYwlS-45" target="SlZBRCtrslSZPi-aYwlS-40">
          <mxGeometry x="-0.2121" y="-35" relative="1" as="geometry">
            <mxPoint x="159.99999999999994" y="329.9999999999999" as="targetPoint" />
            <mxPoint x="402.91999999999996" y="437.64" as="sourcePoint" />
            <Array as="points">
              <mxPoint x="186" y="440" />
            </Array>
            <mxPoint as="offset" />
          </mxGeometry>
        </mxCell>
        <mxCell id="SlZBRCtrslSZPi-aYwlS-96" value=":PC" style="shape=umlLifeline;perimeter=lifelinePerimeter;whiteSpace=wrap;html=1;container=1;dropTarget=0;collapsible=0;recursiveResize=0;outlineConnect=0;portConstraint=eastwest;newEdgeStyle={&quot;curved&quot;:0,&quot;rounded&quot;:0};" vertex="1" parent="1">
          <mxGeometry x="480" y="1200" width="100" height="1080" as="geometry" />
        </mxCell>
        <mxCell id="SlZBRCtrslSZPi-aYwlS-98" value="" style="html=1;points=[[0,0,0,0,5],[0,1,0,0,-5],[1,0,0,0,5],[1,1,0,0,-5]];perimeter=orthogonalPerimeter;outlineConnect=0;targetShapes=umlLifeline;portConstraint=eastwest;newEdgeStyle={&quot;curved&quot;:0,&quot;rounded&quot;:0};" vertex="1" parent="SlZBRCtrslSZPi-aYwlS-96">
          <mxGeometry x="45" y="100" width="10" height="90" as="geometry" />
        </mxCell>
        <mxCell id="SlZBRCtrslSZPi-aYwlS-103" value="" style="html=1;points=[[0,0,0,0,5],[0,1,0,0,-5],[1,0,0,0,5],[1,1,0,0,-5]];perimeter=orthogonalPerimeter;outlineConnect=0;targetShapes=umlLifeline;portConstraint=eastwest;newEdgeStyle={&quot;curved&quot;:0,&quot;rounded&quot;:0};" vertex="1" parent="SlZBRCtrslSZPi-aYwlS-96">
          <mxGeometry x="55" y="120" width="10" height="40" as="geometry" />
        </mxCell>
        <mxCell id="SlZBRCtrslSZPi-aYwlS-104" value="randomWortErstellt()" style="html=1;align=left;spacingLeft=2;endArrow=block;rounded=0;edgeStyle=orthogonalEdgeStyle;curved=0;rounded=0;" edge="1" target="SlZBRCtrslSZPi-aYwlS-103" parent="SlZBRCtrslSZPi-aYwlS-96">
          <mxGeometry relative="1" as="geometry">
            <mxPoint x="60" y="100" as="sourcePoint" />
            <Array as="points">
              <mxPoint x="90" y="130" />
            </Array>
          </mxGeometry>
        </mxCell>
        <mxCell id="SlZBRCtrslSZPi-aYwlS-108" value="" style="html=1;points=[[0,0,0,0,5],[0,1,0,0,-5],[1,0,0,0,5],[1,1,0,0,-5]];perimeter=orthogonalPerimeter;outlineConnect=0;targetShapes=umlLifeline;portConstraint=eastwest;newEdgeStyle={&quot;curved&quot;:0,&quot;rounded&quot;:0};" vertex="1" parent="SlZBRCtrslSZPi-aYwlS-96">
          <mxGeometry x="45" y="240" width="10" height="300" as="geometry" />
        </mxCell>
        <mxCell id="SlZBRCtrslSZPi-aYwlS-112" value="" style="html=1;points=[[0,0,0,0,5],[0,1,0,0,-5],[1,0,0,0,5],[1,1,0,0,-5]];perimeter=orthogonalPerimeter;outlineConnect=0;targetShapes=umlLifeline;portConstraint=eastwest;newEdgeStyle={&quot;curved&quot;:0,&quot;rounded&quot;:0};" vertex="1" parent="SlZBRCtrslSZPi-aYwlS-96">
          <mxGeometry x="55" y="260" width="10" height="40" as="geometry" />
        </mxCell>
        <mxCell id="SlZBRCtrslSZPi-aYwlS-113" value="kontrolliert()" style="html=1;align=left;spacingLeft=2;endArrow=block;rounded=0;edgeStyle=orthogonalEdgeStyle;curved=0;rounded=0;" edge="1" target="SlZBRCtrslSZPi-aYwlS-112" parent="SlZBRCtrslSZPi-aYwlS-96">
          <mxGeometry relative="1" as="geometry">
            <mxPoint x="60" y="240" as="sourcePoint" />
            <Array as="points">
              <mxPoint x="90" y="270" />
            </Array>
          </mxGeometry>
        </mxCell>
        <mxCell id="SlZBRCtrslSZPi-aYwlS-130" value="" style="html=1;points=[[0,0,0,0,5],[0,1,0,0,-5],[1,0,0,0,5],[1,1,0,0,-5]];perimeter=orthogonalPerimeter;outlineConnect=0;targetShapes=umlLifeline;portConstraint=eastwest;newEdgeStyle={&quot;curved&quot;:0,&quot;rounded&quot;:0};" vertex="1" parent="SlZBRCtrslSZPi-aYwlS-96">
          <mxGeometry x="55" y="418" width="10" height="40" as="geometry" />
        </mxCell>
        <mxCell id="SlZBRCtrslSZPi-aYwlS-131" value="strichZiehen&lt;div&gt;(maxVersuch=10)&lt;/div&gt;" style="html=1;align=left;spacingLeft=2;endArrow=block;rounded=0;edgeStyle=orthogonalEdgeStyle;curved=0;rounded=0;" edge="1" parent="SlZBRCtrslSZPi-aYwlS-96">
          <mxGeometry relative="1" as="geometry">
            <mxPoint x="60" y="400" as="sourcePoint" />
            <Array as="points">
              <mxPoint x="90" y="430" />
            </Array>
            <mxPoint x="65" y="430" as="targetPoint" />
          </mxGeometry>
        </mxCell>
        <mxCell id="SlZBRCtrslSZPi-aYwlS-120" value="" style="html=1;points=[[0,0,0,0,5],[0,1,0,0,-5],[1,0,0,0,5],[1,1,0,0,-5]];perimeter=orthogonalPerimeter;outlineConnect=0;targetShapes=umlLifeline;portConstraint=eastwest;newEdgeStyle={&quot;curved&quot;:0,&quot;rounded&quot;:0};" vertex="1" parent="SlZBRCtrslSZPi-aYwlS-96">
          <mxGeometry x="45" y="610" width="10" height="175" as="geometry" />
        </mxCell>
        <mxCell id="SlZBRCtrslSZPi-aYwlS-138" value="" style="html=1;points=[[0,0,0,0,5],[0,1,0,0,-5],[1,0,0,0,5],[1,1,0,0,-5]];perimeter=orthogonalPerimeter;outlineConnect=0;targetShapes=umlLifeline;portConstraint=eastwest;newEdgeStyle={&quot;curved&quot;:0,&quot;rounded&quot;:0};" vertex="1" parent="SlZBRCtrslSZPi-aYwlS-96">
          <mxGeometry x="50" y="639" width="10" height="40" as="geometry" />
        </mxCell>
        <mxCell id="SlZBRCtrslSZPi-aYwlS-139" value="kontrolliert()" style="html=1;align=left;spacingLeft=2;endArrow=block;rounded=0;edgeStyle=orthogonalEdgeStyle;curved=0;rounded=0;" edge="1" target="SlZBRCtrslSZPi-aYwlS-138" parent="SlZBRCtrslSZPi-aYwlS-96">
          <mxGeometry relative="1" as="geometry">
            <mxPoint x="55" y="619" as="sourcePoint" />
            <Array as="points">
              <mxPoint x="85" y="649" />
            </Array>
          </mxGeometry>
        </mxCell>
        <mxCell id="SlZBRCtrslSZPi-aYwlS-117" value="" style="html=1;points=[[0,0,0,0,5],[0,1,0,0,-5],[1,0,0,0,5],[1,1,0,0,-5]];perimeter=orthogonalPerimeter;outlineConnect=0;targetShapes=umlLifeline;portConstraint=eastwest;newEdgeStyle={&quot;curved&quot;:0,&quot;rounded&quot;:0};" vertex="1" parent="SlZBRCtrslSZPi-aYwlS-96">
          <mxGeometry x="-324" y="613" width="10" height="122" as="geometry" />
        </mxCell>
        <mxCell id="SlZBRCtrslSZPi-aYwlS-119" value="wortErraten" style="html=1;verticalAlign=bottom;endArrow=block;curved=0;rounded=0;" edge="1" parent="SlZBRCtrslSZPi-aYwlS-96">
          <mxGeometry width="80" relative="1" as="geometry">
            <mxPoint x="-314" y="630" as="sourcePoint" />
            <mxPoint x="45" y="630" as="targetPoint" />
          </mxGeometry>
        </mxCell>
        <mxCell id="SlZBRCtrslSZPi-aYwlS-141" value="richtig" style="html=1;verticalAlign=bottom;endArrow=open;dashed=1;endSize=8;curved=0;rounded=0;" edge="1" parent="SlZBRCtrslSZPi-aYwlS-96">
          <mxGeometry relative="1" as="geometry">
            <mxPoint x="48" y="720" as="sourcePoint" />
            <mxPoint x="-316.07142857142856" y="720" as="targetPoint" />
          </mxGeometry>
        </mxCell>
        <mxCell id="SlZBRCtrslSZPi-aYwlS-142" value="falsch" style="html=1;verticalAlign=bottom;endArrow=open;dashed=1;endSize=8;curved=0;rounded=0;" edge="1" parent="SlZBRCtrslSZPi-aYwlS-96">
          <mxGeometry relative="1" as="geometry">
            <mxPoint x="45" y="689.5" as="sourcePoint" />
            <mxPoint x="-314" y="689.5" as="targetPoint" />
          </mxGeometry>
        </mxCell>
        <mxCell id="SlZBRCtrslSZPi-aYwlS-99" value="" style="shape=umlLifeline;perimeter=lifelinePerimeter;whiteSpace=wrap;html=1;container=1;dropTarget=0;collapsible=0;recursiveResize=0;outlineConnect=0;portConstraint=eastwest;newEdgeStyle={&quot;curved&quot;:0,&quot;rounded&quot;:0};participant=umlActor;" vertex="1" parent="1">
          <mxGeometry x="151" y="1200" width="20" height="1080" as="geometry" />
        </mxCell>
        <mxCell id="SlZBRCtrslSZPi-aYwlS-100" value="" style="html=1;points=[[0,0,0,0,5],[0,1,0,0,-5],[1,0,0,0,5],[1,1,0,0,-5]];perimeter=orthogonalPerimeter;outlineConnect=0;targetShapes=umlLifeline;portConstraint=eastwest;newEdgeStyle={&quot;curved&quot;:0,&quot;rounded&quot;:0};" vertex="1" parent="SlZBRCtrslSZPi-aYwlS-99">
          <mxGeometry x="5" y="100" width="10" height="90" as="geometry" />
        </mxCell>
        <mxCell id="SlZBRCtrslSZPi-aYwlS-106" value="" style="html=1;points=[[0,0,0,0,5],[0,1,0,0,-5],[1,0,0,0,5],[1,1,0,0,-5]];perimeter=orthogonalPerimeter;outlineConnect=0;targetShapes=umlLifeline;portConstraint=eastwest;newEdgeStyle={&quot;curved&quot;:0,&quot;rounded&quot;:0};" vertex="1" parent="SlZBRCtrslSZPi-aYwlS-99">
          <mxGeometry x="5" y="240" width="10" height="120" as="geometry" />
        </mxCell>
        <mxCell id="SlZBRCtrslSZPi-aYwlS-147" value="" style="html=1;points=[[0,0,0,0,5],[0,1,0,0,-5],[1,0,0,0,5],[1,1,0,0,-5]];perimeter=orthogonalPerimeter;outlineConnect=0;targetShapes=umlLifeline;portConstraint=eastwest;newEdgeStyle={&quot;curved&quot;:0,&quot;rounded&quot;:0};" vertex="1" parent="SlZBRCtrslSZPi-aYwlS-99">
          <mxGeometry x="5" y="490" width="10" height="50" as="geometry" />
        </mxCell>
        <mxCell id="SlZBRCtrslSZPi-aYwlS-101" value="" style="endArrow=classic;html=1;rounded=0;" edge="1" parent="1">
          <mxGeometry width="50" height="50" relative="1" as="geometry">
            <mxPoint x="161" y="1307" as="sourcePoint" />
            <mxPoint x="524.5" y="1307" as="targetPoint" />
          </mxGeometry>
        </mxCell>
        <mxCell id="SlZBRCtrslSZPi-aYwlS-102" value="startSpiel(()" style="text;html=1;align=center;verticalAlign=middle;resizable=0;points=[];autosize=1;strokeColor=none;fillColor=none;" vertex="1" parent="1">
          <mxGeometry x="240" y="1280" width="90" height="30" as="geometry" />
        </mxCell>
        <mxCell id="SlZBRCtrslSZPi-aYwlS-105" value="gib ein Buchstabe ein" style="html=1;verticalAlign=bottom;endArrow=open;dashed=1;endSize=8;curved=0;rounded=0;" edge="1" parent="1">
          <mxGeometry relative="1" as="geometry">
            <mxPoint x="529.5" y="1387" as="sourcePoint" />
            <mxPoint x="160.5" y="1387" as="targetPoint" />
          </mxGeometry>
        </mxCell>
        <mxCell id="SlZBRCtrslSZPi-aYwlS-107" value="gedrückt()" style="html=1;verticalAlign=bottom;endArrow=block;curved=0;rounded=0;" edge="1" parent="1">
          <mxGeometry width="80" relative="1" as="geometry">
            <mxPoint x="160.5" y="1454" as="sourcePoint" />
            <mxPoint x="529.5" y="1454" as="targetPoint" />
          </mxGeometry>
        </mxCell>
        <mxCell id="SlZBRCtrslSZPi-aYwlS-115" value="richtig" style="html=1;verticalAlign=bottom;endArrow=open;dashed=1;endSize=8;curved=0;rounded=0;" edge="1" parent="1">
          <mxGeometry relative="1" as="geometry">
            <mxPoint x="520" y="1544" as="sourcePoint" />
            <mxPoint x="166" y="1544" as="targetPoint" />
          </mxGeometry>
        </mxCell>
        <mxCell id="SlZBRCtrslSZPi-aYwlS-116" value="falsch" style="html=1;verticalAlign=bottom;endArrow=open;dashed=1;endSize=8;curved=0;rounded=0;" edge="1" parent="1">
          <mxGeometry relative="1" as="geometry">
            <mxPoint x="522" y="1590.5" as="sourcePoint" />
            <mxPoint x="163" y="1590.5" as="targetPoint" />
          </mxGeometry>
        </mxCell>
        <mxCell id="SlZBRCtrslSZPi-aYwlS-133" value="loop" style="shape=umlFrame;whiteSpace=wrap;html=1;pointerEvents=0;" vertex="1" parent="1">
          <mxGeometry y="1402" width="700" height="352" as="geometry" />
        </mxCell>
        <mxCell id="SlZBRCtrslSZPi-aYwlS-135" value="" style="html=1;points=[[0,0,0,0,5],[0,1,0,0,-5],[1,0,0,0,5],[1,1,0,0,-5]];perimeter=orthogonalPerimeter;outlineConnect=0;targetShapes=umlLifeline;portConstraint=eastwest;newEdgeStyle={&quot;curved&quot;:0,&quot;rounded&quot;:0};" vertex="1" parent="1">
          <mxGeometry x="156" y="1590" width="10" height="30" as="geometry" />
        </mxCell>
        <mxCell id="SlZBRCtrslSZPi-aYwlS-143" value="alt" style="shape=umlFrame;whiteSpace=wrap;html=1;pointerEvents=0;" vertex="1" parent="1">
          <mxGeometry x="85" y="1428" width="585" height="252" as="geometry" />
        </mxCell>
        <mxCell id="SlZBRCtrslSZPi-aYwlS-144" value="" style="endArrow=none;dashed=1;html=1;dashPattern=1 3;strokeWidth=2;rounded=0;entryX=0.998;entryY=0.525;entryDx=0;entryDy=0;entryPerimeter=0;exitX=-0.004;exitY=0.524;exitDx=0;exitDy=0;exitPerimeter=0;fillColor=#f8cecc;strokeColor=#b85450;" edge="1" parent="1" source="SlZBRCtrslSZPi-aYwlS-143" target="SlZBRCtrslSZPi-aYwlS-143">
          <mxGeometry width="50" height="50" relative="1" as="geometry">
            <mxPoint x="119.99999999999996" y="1571.7999999999997" as="sourcePoint" />
            <mxPoint x="669.45" y="1567" as="targetPoint" />
          </mxGeometry>
        </mxCell>
        <mxCell id="SlZBRCtrslSZPi-aYwlS-145" value="Else" style="text;html=1;align=center;verticalAlign=middle;resizable=0;points=[];autosize=1;strokeColor=none;fillColor=none;" vertex="1" parent="1">
          <mxGeometry x="105" y="1568" width="50" height="30" as="geometry" />
        </mxCell>
        <mxCell id="SlZBRCtrslSZPi-aYwlS-148" value="gib ein Buchstabe ein" style="html=1;verticalAlign=bottom;endArrow=open;dashed=1;endSize=8;curved=0;rounded=0;" edge="1" parent="1">
          <mxGeometry relative="1" as="geometry">
            <mxPoint x="525" y="1710" as="sourcePoint" />
            <mxPoint x="170" y="1710" as="targetPoint" />
          </mxGeometry>
        </mxCell>
        <mxCell id="SlZBRCtrslSZPi-aYwlS-149" value="gib neue Buchstabe ein" style="html=1;verticalAlign=bottom;endArrow=block;curved=0;rounded=0;" edge="1" parent="1">
          <mxGeometry width="80" relative="1" as="geometry">
            <mxPoint x="166" y="1736" as="sourcePoint" />
            <mxPoint x="525" y="1736" as="targetPoint" />
          </mxGeometry>
        </mxCell>
      </root>
    </mxGraphModel>
  </diagram>
</mxfile>
